<?xml version="1.0" encoding="utf-8"?>
<!-- Generator: Adobe Illustrator 24.1.1, SVG Export Plug-In . SVG Version: 6.00 Build 0)  -->
<svg version="1.1" id="Layer_1" xmlns="http://www.w3.org/2000/svg" xmlns:xlink="http://www.w3.org/1999/xlink" x="0px" y="0px"
	 viewBox="0 0 363.19 225.48" style="enable-background:new 0 0 363.19 225.48;" xml:space="preserve">
<style type="text/css">
	.st0{fill:#6D6E71;}
	.st1{fill:#013E6A;stroke:#FFFFFF;stroke-width:1.3974;stroke-miterlimit:10;}
	.st2{fill:#FFFFFF;stroke:#FFFFFF;stroke-width:0.4658;stroke-miterlimit:10;}
	.st3{fill:#013E6A;}
	.st4{fill:#FFFFFF;}
	.st5{fill:#013E6A;stroke:#FFFFFF;stroke-width:1.4711;stroke-miterlimit:10;}
	.st6{fill:none;stroke:#FFFFFF;stroke-width:0.6819;stroke-miterlimit:10;}
	.st7{fill:#ED1C24;}
</style>
<g>
	<path class="st0" d="M168.32,55.43c0,0,4.66,3.96,5.59,17.23c0,0,1.88,37.72,2.69,51s0.03,49.46,0.03,49.46s-1.32,11.24-7.14,11.24
		H89.13c0,0-5.59-2.1-5.82-3.73v-3.4c0,0-3.49-1.4-5.12-6.52c0,0-23.99-12.58-25.39-37.96s10.95-29.81,10.95-29.81l4.89-2.56
		L67,95.25c0,0,4.95-3.71,8.68-3.95c0,0-2.19,4.41,1.71,4.95l0.5,0.15c2.27-0.85,5.74-4.11,5.89-6.52l1.85-29.8
		c0,0,0.23-3.96,2.33-4.66c0,0,2.33-7.45,7.92-6.52h72.43V55.43z"/>
	<circle class="st1" cx="128.8" cy="125.3" r="47.82"/>
	<circle class="st2" cx="128.8" cy="125.3" r="26.4"/>
	<path class="st0" d="M95.88,48.91c0,0-7.92-6.52-7.22-20.26s7.22-17,7.22-17h47.51c0,0,5.12-6.29,15.14-8.15h45.18
		c0,0,1.86-3.49,4.19-3.49l26.22,0.62c0,0,1.33,4.52,1.5,7.06c0,0,4.89-0.47,6.52,3.96c0,0,3.15,6.36,3.49,8.62
		c0.42,2.76,0.57,15.97,0,18.87c-0.57,2.9-3.96,9.78-3.96,9.78s-1.86,3.03-6.52,3.49c0,0-4.66,6.52-6.99,7.22
		c0,0-9.78,3.26-16.77,3.03s-17.7-6.99-17.7-6.99s-17.08,0.47-26.57-0.93c-7.83-1.15-14.12-3.27-20.24-3.73
		C136.2,50.21,109.63,49.6,95.88,48.91z"/>
	<g>
		<path class="st3" d="M25.67,166.46l-0.17-57.37c0-0.22,0-0.36-0.44-0.36c-0.12,0-0.21,0.02-0.23,0.02l-0.07,0.01l-25.49,0V84.4
			h78.87v24.27H52.14c-0.04,0.05-0.09,0.35-0.08,0.53l0,57.26H25.67z"/>
		<path class="st4" d="M77.4,85.13v22.8H52.14c-0.9,0-0.82,1.31-0.82,1.31v56.48H26.4l-0.16-56.64c0-0.94-0.72-1.1-1.18-1.1
			c-0.22,0-0.38,0.03-0.38,0.03H0V85.13H77.4 M78.87,83.66H77.4H0h-1.47v1.47v22.88v1.47H0h24.68h0.08l0.16,56.23l0,1.47h1.47h24.93
			h1.47v-1.47v-56.31h24.6h1.47v-1.47v-22.8V83.66L78.87,83.66z"/>
	</g>
	<g>
		<path class="st3" d="M229.79,166.64c-0.64,0-0.99-0.02-0.99-0.02l-50.71,0V84.4h50.92c13.97,1,24.47,5.59,31.28,13.63
			c9.51,11.23,8.32,25,8.27,25.58c0,17.3-5.76,29.74-17.12,36.91C242.45,166.2,232.6,166.64,229.79,166.64
			C229.79,166.64,229.79,166.64,229.79,166.64z"/>
		<path class="st4" d="M229.01,85.13c42.17,3.02,38.82,38.41,38.82,38.41c0,40.47-32.07,42.36-38.04,42.36
			c-0.61,0-0.95-0.02-0.95-0.02h-50.02V85.13H229.01 M229.06,83.66h-0.05h-50.18h-1.47v1.47v80.75v1.47h1.47h49.98
			c0.12,0.01,0.46,0.02,0.99,0.02c2.86,0,12.88-0.45,22.04-6.23c11.58-7.3,17.45-19.93,17.47-37.53c0.11-1.25,1.01-14.89-8.45-26.06
			c-6.94-8.2-17.62-12.88-31.74-13.89L229.06,83.66L229.06,83.66z"/>
	</g>
	<path class="st4" d="M206.45,105.57v39.72h16.02c0,0,13.65-0.08,14.14-18.55c0,0,2.53-20.51-15.08-21.17H206.45z"/>
	<g>
		<path class="st3" d="M325.09,166.64c-0.64,0-0.99-0.02-0.99-0.02l-50.71,0V84.4h50.92c13.97,1,24.47,5.59,31.28,13.63
			c9.51,11.23,8.32,25,8.27,25.58c0,17.3-5.76,29.74-17.12,36.91C337.75,166.2,327.9,166.64,325.09,166.64
			C325.09,166.64,325.09,166.64,325.09,166.64z"/>
		<path class="st4" d="M324.3,85.13c42.17,3.02,38.82,38.41,38.82,38.41c0,40.47-32.07,42.36-38.04,42.36
			c-0.61,0-0.95-0.02-0.95-0.02h-50.02V85.13H324.3 M324.36,83.66h-0.05h-50.18h-1.47v1.47v80.75v1.47h1.47h49.98
			c0.12,0.01,0.46,0.02,0.99,0.02c2.86,0,12.88-0.45,22.04-6.23c11.58-7.3,17.45-19.93,17.47-37.53c0.11-1.25,1.01-14.89-8.45-26.06
			c-6.94-8.2-17.62-12.88-31.74-13.89L324.36,83.66L324.36,83.66z"/>
	</g>
	<path class="st4" d="M301.75,105.57v39.72h16.02c0,0,13.65-0.08,14.14-18.55c0,0,2.53-20.51-15.08-21.17H301.75z"/>
	<g>
		<path class="st5" d="M73.65,202.14c0,2.85,0,5.7,0,8.58c-0.34,0.02-0.58,0.04-0.83,0.04c-3.91,0-7.81,0.01-11.72-0.02
			c-0.36,0-0.82-0.19-1.07-0.45c-2.98-3.06-5.93-6.14-8.89-9.22c-0.36-0.38-0.74-0.74-1.24-1.23c0,3.7,0,7.25,0,10.85
			c-4.06,0-8.03,0-12.05,0c0-11.05,0-22.11,0-33.23c0.29-0.01,0.57-0.04,0.84-0.04c6.83,0,13.66-0.1,20.48,0.03
			c4.5,0.09,8.54,1.68,10.36,6.07c2.01,4.86,1.19,10.08-4.31,12.7c-1.25,0.6-2.61,0.99-3.96,1.5c0.73,0.94,1.46,1.9,2.21,2.83
			c0.12,0.14,0.38,0.24,0.57,0.25c3.06,0.02,6.12,0.01,9.22,0.01c-0.23-1.21-0.53-2.36-0.66-3.53c-0.41-3.61-0.23-7.17,1.17-10.58
			c1.76-4.25,4.98-6.95,9.29-8.28c5.72-1.77,11.51-1.8,17.2,0.14c5.98,2.04,9.37,6.33,10.2,12.58c0.46,3.43,0.32,6.84-0.92,10.12
			c-1.69,4.48-4.93,7.37-9.43,8.81c-5.4,1.72-10.89,1.75-16.34,0.29c-4.53-1.21-8-3.83-9.93-8.26
			C73.79,202.11,73.72,202.12,73.65,202.14z M84.19,194.14c0.12,1.06,0.14,1.96,0.34,2.83c0.56,2.44,1.59,4.52,4.35,5.1
			c2.01,0.42,4.02,0.42,5.98-0.25c1.6-0.54,2.82-1.6,3.33-3.22c0.98-3.13,0.93-6.24-0.55-9.25c-0.63-1.29-1.64-2.11-2.99-2.52
			c-1.67-0.51-3.39-0.55-5.08-0.27c-2.57,0.42-4.24,1.95-4.88,4.49C84.42,192.11,84.33,193.21,84.19,194.14z M49.97,185.69
			c0,2.15,0,4.14,0,6.18c2.88,0,5.68,0.03,8.48-0.01c1.08-0.02,1.79-0.65,1.97-1.72c0.12-0.73,0.15-1.51,0.02-2.24
			c-0.26-1.49-1.19-2.19-2.71-2.21c-0.98-0.02-1.96,0-2.94,0C53.19,185.69,51.6,185.69,49.97,185.69z"/>
		<path class="st5" d="M322.32,189.59c0-4.01,0-8.01,0-12.09c3.62,0,7.17,0,10.8,0c0,7.73,0,15.47,0,23.25
			c0.21,0.03,0.34,0.06,0.48,0.06c2.64,0,5.28,0.02,7.92-0.02c0.6-0.01,1.23-0.15,1.8-0.36c0.6-0.21,0.83-0.74,0.41-1.28
			c-0.51-0.66-1.1-1.27-1.72-1.83c-2.31-2.08-4.4-4.34-5.84-7.12c-1.18-2.28-1.7-4.66-1.03-7.23c0.93-3.52,3.13-5.46,6.78-5.51
			c6.15-0.09,12.3-0.02,18.46-0.02c0.11,0,0.21,0.03,0.37,0.05c0,3.27,0,6.51,0,9.85c-1.17,0-2.31-0.01-3.45,0
			c-2.22,0.03-4.43,0.04-6.65,0.16c-0.49,0.03-1.29,0.39-1.36,0.71c-0.09,0.45,0.28,1.11,0.64,1.5c1.39,1.47,2.92,2.8,4.28,4.29
			c1.85,2.04,3.22,4.37,3.82,7.1c0.75,3.45-0.32,6.55-2.9,8.16c-1.55,0.97-3.24,1.5-5.09,1.5c-8.96,0-17.92,0-26.89,0.02
			c-0.61,0-1.01-0.14-1.41-0.65c-2.94-3.76-5.93-7.48-8.9-11.22c-0.1-0.13-0.21-0.25-0.45-0.52c0,4.2,0,8.22,0,12.3
			c-3.65,0-7.2,0-10.89,0c0-0.27,0-0.57,0-0.86c0-10.48,0.01-20.96-0.02-31.44c0-0.78,0.22-0.99,0.99-0.98
			c3.06,0.04,6.12,0.03,9.19,0.01c0.54,0,0.86,0.17,1.19,0.59c2.97,3.77,5.97,7.52,8.96,11.28c0.1,0.13,0.21,0.25,0.32,0.37
			C322.2,189.64,322.26,189.62,322.32,189.59z"/>
		<path class="st5" d="M217.19,200.82c0,3.35,0,6.57,0,9.94c-0.31,0-0.6,0-0.89,0c-4.92,0-9.83,0.08-14.75-0.02
			c-4.6-0.1-8.95-1.19-12.63-4.14c-3.48-2.78-5.24-6.49-5.63-10.89c-0.26-2.92-0.05-5.77,1.13-8.49c2.06-4.73,5.87-7.37,10.66-8.8
			c2.32-0.69,4.71-0.98,7.14-0.98c15.17,0,30.34,0,45.51,0c0.36,0,0.72,0,1.13,0c0,3.33,0,6.57,0,9.9c-3.48,0-6.92,0-10.45,0
			c0,7.82,0,15.56,0,23.36c-3.64,0-7.19,0-10.86,0c0-7.73,0-15.49,0-23.35c-0.42,0-0.72,0-1.02,0c-7.25,0.01-14.5-0.01-21.74,0.05
			c-1.56,0.01-3.14,0.18-4.67,0.47c-3.23,0.62-4.71,2.26-4.97,5.54c-0.16,2.05,0.04,4.05,1.71,5.58c1.07,0.98,2.42,1.34,3.78,1.46
			c2.29,0.21,4.59,0.31,6.88,0.36c2.89,0.06,5.79,0.01,8.68,0.01C216.49,200.82,216.79,200.82,217.19,200.82z"/>
		<path class="st5" d="M112.37,210.77c0-0.38,0-0.68,0-0.98c0-10.45,0.01-20.9-0.02-31.35c0-0.81,0.21-1.03,1.02-1.03
			c6.46,0.03,12.92-0.01,19.38,0.03c2.95,0.02,5.78,0.6,8.45,1.93c4.63,2.29,6.97,6.16,7.68,11.13c0.51,3.58,0.14,7.1-0.96,10.54
			c-1.77,5.5-5.72,8.4-11.23,9.36c-1.59,0.28-3.24,0.34-4.86,0.35c-6.12,0.04-12.25,0.02-18.37,0.02
			C113.13,210.77,112.8,210.77,112.37,210.77z M123.5,202.46c2.39,0,4.69,0.1,6.98-0.03c2.72-0.15,4.83-2.02,5.51-4.67
			c0.58-2.23,0.7-4.5,0.21-6.75c-0.55-2.56-1.94-4.66-4.63-5.08c-2.63-0.42-5.35-0.27-8.08-0.37
			C123.5,191.29,123.5,196.84,123.5,202.46z"/>
		<path class="st5" d="M280.94,211.3c-3.59,0.08-6.93-0.39-10.1-1.74c-4.54-1.94-7.39-5.33-8.51-10.14
			c-0.83-3.56-0.83-7.13,0.09-10.66c1.26-4.84,4.28-8.27,8.97-9.96c6.6-2.38,13.27-2.37,19.77,0.39c5.06,2.15,7.82,6.24,8.61,11.6
			c0.53,3.56,0.4,7.11-0.91,10.53c-1.88,4.9-5.58,7.72-10.51,9.09C285.87,211.11,283.34,211.4,280.94,211.3z M273.51,194.11
			c0.12,1.06,0.14,1.99,0.35,2.89c0.56,2.4,1.56,4.47,4.29,5.06c2.04,0.44,4.07,0.44,6.06-0.24c1.59-0.55,2.82-1.62,3.32-3.23
			c0.96-3.1,0.92-6.18-0.53-9.17c-0.64-1.33-1.65-2.16-3.04-2.58c-1.67-0.51-3.39-0.54-5.08-0.26c-2.57,0.43-4.23,1.97-4.87,4.51
			C273.74,192.11,273.65,193.17,273.51,194.11z"/>
		<path class="st5" d="M15.15,199.76c0,3.72,0,7.31,0,10.95c-4.04,0-8,0-12.02,0c0-11.05,0-22.1,0-33.27c0.31,0,0.61,0,0.9,0
			c6.8,0,13.59-0.08,20.39,0.03c3.77,0.06,7.32,1.14,9.53,4.45c2.43,3.65,2.91,7.74,1.12,11.77c-1.16,2.62-3.48,4.33-6.2,5.23
			c-1.46,0.48-3.05,0.73-4.59,0.8c-2.69,0.13-5.39,0.03-8.09,0.03C15.89,199.76,15.58,199.76,15.15,199.76z M15.22,191.86
			c2.91,0,5.8,0.05,8.68-0.03c0.94-0.03,1.7-0.64,1.83-1.68c0.09-0.72,0.15-1.47,0.03-2.17c-0.24-1.5-1.22-2.27-2.76-2.29
			c-1.35-0.01-2.7,0-4.04,0c-1.23,0-2.46,0-3.74,0C15.22,187.79,15.22,189.79,15.22,191.86z"/>
		<path class="st5" d="M171.96,177.48c3.66,0,7.19,0,10.82,0c0,0.36,0,0.69,0,1.02c0,6.09,0,12.19,0,18.28
			c0,7.4-3.65,12.09-10.85,13.86c-5.15,1.26-10.21,0.86-15.06-1.25c-4.46-1.94-6.95-5.45-7.12-10.33c-0.17-4.85-0.1-9.71-0.12-14.57
			c-0.01-2.11,0.01-4.21-0.01-6.32c-0.01-0.54,0.15-0.74,0.71-0.73c3.15,0.02,6.29,0.03,9.44,0c0.74-0.01,0.72,0.38,0.72,0.89
			c-0.01,6.35-0.01,12.7,0,19.04c0,0.62,0.01,1.24,0.1,1.85c0.27,1.96,1.36,3.19,3.3,3.68c1.85,0.46,3.66,0.49,5.41-0.39
			c1.53-0.77,2.36-2.04,2.53-3.72c0.09-0.86,0.13-1.73,0.13-2.6c0.01-5.87,0.01-11.74,0.01-17.61
			C171.96,178.23,171.96,177.9,171.96,177.48z"/>
		<path class="st5" d="M249.74,177.48c3.58,0,7.1,0,10.69,0c0,11.07,0,22.11,0,33.22c-3.53,0-7.08,0-10.69,0
			C249.74,199.67,249.74,188.63,249.74,177.48z"/>
	</g>
	<g>
		<path class="st3" d="M360.18,219.93c-0.09,0.37-0.18,0.75-0.27,1.12c-0.57,2.19-2.38,3.74-5.01,3.87
			c-3.06,0.15-6.14,0.04-9.29,0.04c0-3.64,0-7.4,0-11.24c1.7,0,3.38-0.04,5.05,0.01c1.73,0.06,3.48,0.03,5.17,0.36
			c2.42,0.46,3.97,1.95,4.22,4.54c0.01,0.1,0.09,0.19,0.14,0.29C360.18,219.25,360.18,219.59,360.18,219.93z M349.94,222.12
			c0.96,0,1.82,0.01,2.68-0.01c0.28-0.01,0.55-0.08,0.82-0.13c1.36-0.3,1.94-1.12,1.92-2.71c-0.02-1.58-0.61-2.48-1.99-2.65
			c-1.12-0.14-2.27-0.03-3.44-0.03C349.94,218.4,349.94,220.21,349.94,222.12z"/>
		<path class="st3" d="M233.53,213.37c0.51,0.11,1.01,0.23,1.52,0.34c3.16,0.67,4.72,2.61,4.69,5.86c-0.02,2.99-1.71,4.96-4.77,5.55
			c-0.7,0.14-1.41,0.24-2.12,0.36c-0.5,0-1.01,0-1.51,0c-0.71-0.12-1.42-0.22-2.13-0.35c-3.06-0.59-4.73-2.51-4.78-5.47
			c-0.05-3.3,1.46-5.24,4.62-5.94c0.54-0.12,1.08-0.23,1.62-0.35C231.63,213.37,232.58,213.37,233.53,213.37z M229.13,219.35
			c-0.01,2.09,0.97,3.15,2.92,3.17c1.94,0.02,3-1.08,3-3.11c0-1.98-1.12-3.17-2.98-3.17C230.21,216.25,229.14,217.38,229.13,219.35z
			"/>
		<path class="st3" d="M278.94,225.48c-0.9-0.17-1.81-0.28-2.69-0.51c-2.82-0.74-4.2-2.56-4.21-5.48c-0.02-3.03,1.3-4.83,4.13-5.63
			c0.69-0.2,1.4-0.33,2.1-0.49c0.95,0,1.91,0,2.86,0c0.51,0.11,1.01,0.23,1.52,0.34c3.16,0.67,4.72,2.61,4.69,5.86
			c-0.02,2.99-1.71,4.96-4.77,5.55c-0.7,0.14-1.41,0.24-2.12,0.36C279.95,225.48,279.45,225.48,278.94,225.48z M276.73,219.36
			c-0.01,2.08,0.98,3.14,2.93,3.16c1.94,0.01,2.99-1.08,2.99-3.12c0-1.98-1.13-3.17-2.99-3.16
			C277.8,216.25,276.74,217.39,276.73,219.36z"/>
		<path class="st3" d="M215.03,225.48c-0.87-0.16-1.75-0.27-2.6-0.49c-3.09-0.81-4.4-2.68-4.3-6.05c0.08-2.74,1.74-4.61,4.63-5.22
			c0.54-0.11,1.07-0.23,1.6-0.35c0.95,0,1.91,0,2.86,0c0.23,0.06,0.47,0.11,0.7,0.19c1.1,0.37,2.28,0.61,3.29,1.15
			c1.38,0.75,2.06,2.04,2.09,3.72c-1.44,0-2.8-0.02-4.17,0.01c-0.51,0.01-0.8-0.07-0.95-0.66c-0.19-0.75-0.76-1.21-1.53-1.4
			c-2.56-0.64-4.4,1.33-3.76,4.02c0.29,1.21,1.06,1.93,2.23,2.08c1.59,0.21,2.35-0.16,3.09-1.41c0.1-0.18,0.36-0.37,0.54-0.38
			c1.48-0.03,2.96-0.02,4.45-0.02c0.03,0.18,0.07,0.29,0.05,0.39c-0.02,0.16-0.07,0.32-0.12,0.48c-0.68,2.2-2.41,3.11-4.47,3.57
			c-0.7,0.16-1.41,0.24-2.12,0.36C216.04,225.48,215.54,225.48,215.03,225.48z"/>
		<path class="st3" d="M289.24,213.86c3.71,0,7.32-0.04,10.92,0.02c1.3,0.02,2.31,0.68,2.64,2.04c0.37,1.52-0.11,2.67-1.41,3.54
			c-0.07,0.05-0.13,0.11-0.28,0.23c1.31,0.57,1.3,1.72,1.37,2.88c0.05,0.82,0.23,1.64,0.37,2.54c-1.38,0-2.88,0.02-4.37-0.03
			c-0.16,0-0.41-0.34-0.45-0.55c-0.09-0.52-0.06-1.06-0.1-1.59c-0.05-0.77-0.43-1.29-1.24-1.32c-1-0.04-2-0.01-3.1-0.01
			c0,1.17,0,2.27,0,3.44c-1.5,0-2.91,0-4.36,0C289.24,221.29,289.24,217.55,289.24,213.86z M293.6,218.58c1.24,0,2.4,0.04,3.57-0.02
			c0.57-0.02,0.91-0.43,0.91-1.01c0-0.56-0.35-0.93-0.88-0.95c-1.19-0.05-2.38-0.01-3.61-0.01
			C293.6,217.27,293.6,217.87,293.6,218.58z"/>
		<path class="st3" d="M343.58,213.77c0,0.88,0,1.71,0,2.62c-2.53,0-5.02,0-7.57,0c0,0.53,0,0.98,0,1.51c2.03,0,4.04,0,6.1,0
			c0,0.9,0,1.73,0,2.67c-2,0-4.03,0-6.11,0c0,0.6,0,1.09,0,1.66c2.64,0,5.26,0,7.95,0c0,0.97,0,1.85,0,2.81c-4.07,0-8.16,0-12.32,0
			c0-3.75,0-7.49,0-11.28C335.6,213.77,339.54,213.77,343.58,213.77z"/>
		<path class="st3" d="M318.3,225.08c-1.51,0-3.01,0-4.63,0c0-1.44-1.07-1.12-1.97-1.12c-0.9-0.01-1.79,0.02-2.69-0.01
			c-0.45-0.01-0.77,0.08-0.85,0.58c-0.09,0.52-0.42,0.62-0.9,0.6c-1.28-0.03-2.57-0.01-3.99-0.01c0.68-1.6,1.32-3.11,1.97-4.61
			c0.89-2.05,1.8-4.09,2.66-6.15c0.21-0.5,0.47-0.66,1-0.65c1.43,0.03,2.86-0.01,4.29,0.03c0.26,0.01,0.67,0.21,0.76,0.42
			c1.47,3.56,2.9,7.14,4.34,10.72C318.31,224.92,318.3,224.98,318.3,225.08z M312.33,221.2c-0.46-1.36-0.9-2.62-1.33-3.88
			c-0.07,0-0.13,0-0.2,0c-0.46,1.27-0.92,2.54-1.4,3.88C310.45,221.2,311.33,221.2,312.33,221.2z"/>
		<path class="st3" d="M330.01,213.76c0,0.96,0,1.83,0,2.77c-1.37,0-2.7,0-4.11,0c0,2.87,0,5.66,0,8.52c-1.48,0-2.89,0-4.38,0
			c0-2.8,0-5.58,0-8.45c-1.41,0-2.74,0-4.14,0c0-0.98,0-1.88,0-2.83C321.59,213.76,325.78,213.76,330.01,213.76z"/>
		<path class="st3" d="M253.64,219.7c1.2,0.49,1.32,1.45,1.4,2.46c0.08,0.96,0.22,1.91,0.34,2.91c-1.43,0-3,0-4.72,0
			c-0.05-0.59-0.11-1.19-0.13-1.79c-0.06-1.26-0.44-1.65-1.69-1.67c-0.86-0.01-1.72,0-2.68,0c0,1.19,0,2.3,0,3.46
			c-1.48,0-2.86,0-4.33,0c0-3.74,0-7.49,0-11.3c0.29-0.01,0.56-0.04,0.83-0.04c2.74,0,5.49-0.01,8.23,0.01
			c0.72,0.01,1.45,0.07,2.17,0.18c1.13,0.19,2,0.77,2.28,1.94c0.31,1.28,0.08,2.45-0.98,3.34
			C254.18,219.34,253.97,219.47,253.64,219.7z M246.17,218.58c1.24,0,2.4,0.04,3.57-0.02c0.57-0.03,0.91-0.43,0.91-1.01
			c0-0.56-0.35-0.93-0.88-0.95c-1.19-0.05-2.38-0.01-3.61-0.01C246.17,217.27,246.17,217.88,246.17,218.58z"/>
		<path class="st3" d="M257.45,213.88c3.49,0,6.89-0.17,10.26,0.06c2.41,0.16,3.56,1.99,3.16,4.24c-0.25,1.41-1.48,2.49-3.23,2.73
			c-0.91,0.13-1.84,0.14-2.76,0.17c-1,0.03-2.01,0.01-3.11,0.01c0,0.71,0,1.34,0,1.98c0,0.64,0,1.29,0,1.99c-1.45,0-2.85,0-4.31,0
			C257.45,221.29,257.45,217.55,257.45,213.88z M261.82,218.59c1.14,0,2.25,0.04,3.36-0.02c0.64-0.03,0.98-0.48,0.99-1.14
			c0.01-0.68-0.28-1.16-0.98-1.23c-1.1-0.1-2.21-0.12-3.37-0.18C261.82,216.96,261.82,217.76,261.82,218.59z"/>
		<path class="st3" d="M192.36,213.72c1.64,0,3.18-0.02,4.71,0.02c0.26,0.01,0.59,0.27,0.75,0.5c1.15,1.65,2.26,3.33,3.38,5.01
			c0.18,0.27,0.37,0.54,0.73,0.78c0-2.07,0-4.14,0-6.26c1.46,0,2.79,0,4.2,0c0,3.75,0,7.51,0,11.35c-1.53,0-3.04,0.02-4.54-0.02
			c-0.23-0.01-0.51-0.28-0.67-0.51c-1.24-1.69-2.45-3.4-3.68-5.11c-0.22-0.31-0.45-0.61-0.85-0.87c0,2.13,0,4.26,0,6.45
			c-1.4,0-2.7,0-4.04,0C192.36,221.29,192.36,217.56,192.36,213.72z"/>
		<path class="st3" d="M189.71,225.08c-1.44,0-2.8,0-4.23,0c0-3.77,0-7.5,0-11.3c1.39,0,2.77,0,4.23,0
			C189.71,217.51,189.71,221.27,189.71,225.08z"/>
	</g>
	<path class="st4" d="M125.38,33.35h-12.61c0,0-4.69-0.77-4.69-5.63s4.77-5.63,4.77-5.63h12.53V33.35z"/>
	<path class="st4" d="M146.27,33.35c0,0,5.03-0.77,5.03-5.63s-5.03-5.63-5.03-5.63h-20.88v0.94h20.88c0,0,4.18,0.68,4.18,4.69
		S146.27,33.35,146.27,33.35z"/>
	<path class="st6" d="M88.23,29.42c0,0,0.84-1.28,3.65-1.7h16.19"/>
	<line class="st6" x1="151.29" y1="27.72" x2="187.86" y2="27.72"/>
	<path class="st6" d="M185.98,55.08c4.69-31.71,0.43-51.48,0.43-51.48"/>
	<g>
		<circle class="st7" cx="117.18" cy="27.72" r="3.38"/>
		<path class="st7" d="M117.18,25.23c1.38,0,2.49,1.12,2.49,2.49s-1.12,2.49-2.49,2.49c-1.38,0-2.49-1.12-2.49-2.49
			S115.8,25.23,117.18,25.23 M117.18,23.46c-2.35,0-4.26,1.91-4.26,4.26s1.91,4.26,4.26,4.26s4.26-1.91,4.26-4.26
			S119.53,23.46,117.18,23.46L117.18,23.46z"/>
	</g>
	<path class="st4" d="M184.53,55.72"/>
	<path class="st4" d="M183.89,55.72l2.36-2.52l0.83,2.52C187.08,55.72,184.67,55.99,183.89,55.72z"/>
	<circle class="st0" cx="128.8" cy="125.3" r="22.81"/>
	<circle class="st4" cx="143.94" cy="114.88" r="7.67"/>
	<circle class="st4" cx="131.75" cy="123.53" r="5.4"/>
	<circle class="st4" cx="122.93" cy="130.7" r="2.7"/>
</g>
<g>
</g>
<g>
</g>
<g>
</g>
<g>
</g>
<g>
</g>
<g>
</g>
</svg>
